<svg id="Layer_1" data-name="Layer 1" xmlns="http://www.w3.org/2000/svg" viewBox="0 0 512 512"><defs><style>.cls-1{fill:#ffcd34;stroke:#fff;stroke-miterlimit:10;}</style></defs><title>logo</title><g id="Layer_2" data-name="Layer 2"><polygon class="cls-1" points="91.22 256.01 148.01 298.78 141 366.79 221.61 362.58 255.97 413.76 300.83 359.08 373.04 368.89 366.03 295.27 422.11 256.01 361.82 211.84 375.14 145.93 306.44 145.93 260.17 93.34 216.71 145.93 143.8 136.81 148.01 210.44 91.22 256.01"/></g><g id="Layer_1-2" data-name="Layer 1"><path d="M423,232.1,381,203.7l9.6-49.78a28.35,28.35,0,0,0-33.16-33.3l-49.7,9.61-28.32-42c-10.59-15.64-36.38-15.64-47,0l-28.32,42-49.63-9.61a28.42,28.42,0,0,0-33.23,33.3l9.6,49.78L89,232.1a28.41,28.41,0,0,0,0,47l41.92,28.4-9.6,49.78a28.35,28.35,0,0,0,33.23,33.23L204.16,381l28.32,42a28.29,28.29,0,0,0,47,.07l28.32-42,49.7,9.61a28,28,0,0,0,25.45-7.78,28.47,28.47,0,0,0,7.78-25.45l-9.6-49.78L423,279.22A28.43,28.43,0,0,0,423,232.1Zm-79.15,60,12.34,63.94-63.79-12.34L256,397.64l-36.38-54L155.86,356,168.19,292l-53.84-36.46,53.84-36.46-12.34-63.94,63.79,12.34L256,113.68l36.38,53.92,63.79-12.34L343.8,219.13l53.84,36.46L343.8,292.12ZM256,183.09A72.92,72.92,0,1,0,328.87,256,73,73,0,0,0,256,183.09Zm0,112.18A39.26,39.26,0,1,1,295.22,256,39.29,39.29,0,0,1,256,295.27Z"/></g></svg>