<svg version="1" xmlns="http://www.w3.org/2000/svg" width="933.333" height="933.333" viewBox="0 0 700.000000 700.000000"><path d="M335.2 2c-9.7 2.6-18.5 7.4-24.7 13.5-2.8 2.9-17.2 23.2-33.4 47.3-21 31.2-28.8 42.1-30 41.8-2.4-.8-83.2-16.3-94.8-18.3-8.7-1.5-11.4-1.6-18.5-.5-21.3 3-39.2 18.7-45.4 39.7-3.4 11.5-2.6 19.2 8 73 7.5 38.5 9.3 49.2 8.3 50.1-.6.7-6.1 4.5-12.2 8.6-6 4.1-18 12.2-26.5 18-8.5 5.7-22.4 15.1-30.8 20.7-9.7 6.6-17.2 12.5-20.6 16.3-20 22.1-18.9 56 2.5 76.5 4.9 4.8 5 4.9 52.9 37.2 19 12.9 34.9 23.7 35.3 24.1.5.4-3.5 23.2-8.8 50.6-10.5 54-11.2 60.9-8 72.1 6.9 23.8 28.6 40.3 53 40.3 4.8 0 22.6-3 55.8-9.5 26.8-5.2 49.6-9.5 50.5-9.5 1.1.1 11.4 14.5 29.7 41.8 31 46.2 36 52.3 47.9 58 7.5 3.7 17.5 6.2 24.6 6.2 7.2 0 18-2.7 24.9-6.2 11.9-6.1 16.6-11.7 47.2-57.3 15.5-23.1 28.4-42.2 28.6-42.4.2-.2 22.9 3.9 50.6 9.2 53.9 10.5 61.1 11.3 71.8 8.1 19.3-5.7 34.3-21.3 39-40.4 2.6-10.8 1.7-18.7-8.5-70.9-5.3-27.2-9.3-49.7-8.8-50 4.4-3.1 61.6-41.8 71.2-48.2 15.2-10.2 22.3-17.2 27.3-26.7 8.5-16.2 8.7-34.2.6-50.8-5.9-11.9-9.7-15-56.1-46.5-23.8-16.1-43.5-29.4-43.7-29.6-.2-.1 3.9-22.9 9.3-50.5 10.9-57.1 11.4-61.7 7.1-74.5-5.9-17.6-18.3-29.8-36.5-35.9-10-3.4-21.4-2.5-54.5 4-15.9 3.1-37.9 7.4-48.8 9.5l-19.8 3.8-15.6-23.1c-8.6-12.7-21.6-31.9-28.9-42.7-8.5-12.5-15.4-21.5-18.9-24.7-13.4-12.3-33.8-17-52.3-12.2zm50.3 123c20.7 30.9 35.5 52 36.5 52 .8 0 28.6-5.2 61.8-11.6 33.1-6.4 60.5-11.4 60.7-11.2.3.3-4.7 27.2-11 59.9s-11.6 60.4-11.7 61.7c-.3 2.6-1.4 1.8 48.7 35.7 47.9 32.3 53 35.8 54.2 36.9.8.8-11.9 9.9-49.5 35.4-27.9 18.9-51.4 34.9-52.3 35.5-1.5 1.2-.7 6.7 10.2 63.1 6.6 34 11.8 62 11.7 62.2-.2.2-26.7-4.8-58.9-11.1-32.2-6.2-60.1-11.5-62-11.7l-3.4-.3-34.7 51.4c-19 28.2-35 51.7-35.5 52.1-.4.4-16.6-22.7-35.9-51.4l-35.2-52.1-3.3.3c-1.9.1-29.7 5.3-61.9 11.6s-58.7 11.2-58.9 11c-.2-.1 4.9-27.7 11.4-61.1 6.4-33.4 11.7-61.3 11.8-62 .2-1.1-11.1-8.9-81.5-56.5-17.3-11.7-22.4-15.6-21.5-16.5.7-.6 24.2-16.7 52.4-35.7 29.7-20.1 51-35.2 50.8-35.9-1.3-3.8-23.5-122-23-122.5.3-.3 28.3 4.8 62.1 11.3 42.5 8.2 61.7 11.6 62.2 10.8C284.6 168.7 349.6 73 350 73c.3.1 16.2 23.5 35.5 52z"/><path d="M327.9 209.5c-58.9 9.6-104.6 53.3-117.5 112.6-2.7 12-2.7 43.8 0 55.9 13.3 60.7 61.6 105.4 122.2 113.1 12.6 1.6 35.1.6 46.5-2 28.8-6.6 50.5-18.5 71-39 20.9-21.1 32.6-42.5 39.1-71.9 3.1-13.9 3.1-42.4 0-56.3-12.4-56.3-54.8-99.2-109.7-110.9-13.1-2.8-39.2-3.6-51.6-1.5zm33.7 65c16.6 1.8 35.8 12.8 47.4 27.2 11.6 14.3 17 29.8 17 48.3 0 45.9-38.6 80.5-84.4 75.9-31-3.1-57.6-26.1-65.8-56.8-2.8-10.6-2.8-27.7.1-38.4 8.1-30.3 34.5-53.4 65-56.6 7.4-.8 10.2-.8 20.7.4z"/></svg>