<svg xmlns="http://www.w3.org/2000/svg" viewBox="0 0 512 512"><defs><style>.cls-1{fill:#ffcd34;stroke:#fff;stroke-miterlimit:10;}</style></defs><title>Artboard 1</title><g id="Layer_2" data-name="Layer 2"><polygon class="cls-1" points="21 256 102 317 92 414 207 408 256 481 320 403 423 417 413 312 493 256 407 193 426 99 328 99 262 24 200 99 96 86 102 191 21 256"/></g><g id="Layer_1" data-name="Layer 1"><path d="M494.2,221.9l-59.8-40.5,13.7-71a40.43,40.43,0,0,0-47.3-47.5L329.9,76.6,289.5,16.7c-15.1-22.3-51.9-22.3-67,0L182.1,76.6,111.3,62.9a40.54,40.54,0,0,0-47.4,47.5l13.7,71L17.8,221.9a40.52,40.52,0,0,0,0,67.1l59.8,40.5-13.7,71a40.43,40.43,0,0,0,47.4,47.4l70.8-13.7,40.4,59.9a40.36,40.36,0,0,0,67,.1l40.4-59.9L400.8,448a39.9,39.9,0,0,0,36.3-11.1,40.6,40.6,0,0,0,11.1-36.3l-13.7-71,59.8-40.5a40.55,40.55,0,0,0-.1-67.2ZM381.3,307.5l17.6,91.2-91-17.6L256,458l-51.9-77-90.9,17.6,17.6-91.2L54,255.4l76.8-52-17.6-91.2,91,17.6L256,53l51.9,76.9,91-17.6-17.6,91.1,76.8,52-76.8,52.1ZM256,152A104,104,0,1,0,360,256,104.18,104.18,0,0,0,256,152Zm0,160a56,56,0,1,1,56-56A56,56,0,0,1,256,312Z"/></g></svg>